<mxfile host="65bd71144e">
    <diagram id="kPSeOtdn9rbaK4qVGtXM" name="Page-1">
        <mxGraphModel dx="947" dy="773" grid="1" gridSize="10" guides="1" tooltips="1" connect="1" arrows="1" fold="1" page="1" pageScale="1" pageWidth="827" pageHeight="1169" math="0" shadow="0">
            <root>
                <mxCell id="0"/>
                <mxCell id="1" parent="0"/>
                <mxCell id="6" value="" style="rounded=0;whiteSpace=wrap;html=1;fontSize=18;fillColor=#f9f7ed;strokeColor=#36393d;" parent="1" vertex="1">
                    <mxGeometry x="30" y="130" width="670" height="400" as="geometry"/>
                </mxCell>
                <mxCell id="32" style="edgeStyle=orthogonalEdgeStyle;curved=1;html=1;entryX=0;entryY=0.5;entryDx=0;entryDy=0;strokeColor=#FF0000;exitX=0;exitY=0.5;exitDx=0;exitDy=0;" edge="1" parent="1" source="2" target="5">
                    <mxGeometry relative="1" as="geometry"/>
                </mxCell>
                <mxCell id="2" value="&lt;b&gt;&lt;font color=&quot;#000000&quot; style=&quot;font-size: 18px;&quot;&gt;VER&lt;/font&gt;&lt;/b&gt;" style="rounded=0;whiteSpace=wrap;html=1;fillColor=none;strokeColor=#000000;strokeWidth=2;" parent="1" vertex="1">
                    <mxGeometry x="53" y="217" width="97" height="60" as="geometry"/>
                </mxCell>
                <mxCell id="3" value="&lt;b&gt;&lt;font color=&quot;#000000&quot; style=&quot;font-size: 18px;&quot;&gt;CMD&lt;/font&gt;&lt;/b&gt;" style="rounded=0;whiteSpace=wrap;html=1;fillColor=none;strokeColor=#000000;strokeWidth=2;" parent="1" vertex="1">
                    <mxGeometry x="150" y="217" width="87" height="60" as="geometry"/>
                </mxCell>
                <mxCell id="5" value="&lt;font color=&quot;#000000&quot;&gt;0x05 for socks5&lt;/font&gt;" style="text;html=1;strokeColor=none;fillColor=none;align=center;verticalAlign=middle;whiteSpace=wrap;rounded=0;fontSize=18;" parent="1" vertex="1">
                    <mxGeometry x="70" y="150" width="140" height="30" as="geometry"/>
                </mxCell>
                <mxCell id="10" value="Address Type&lt;br&gt;&lt;div style=&quot;text-align: left;&quot;&gt;&lt;span style=&quot;background-color: initial;&quot;&gt;- IPv4: 0x01&lt;/span&gt;&lt;/div&gt;&lt;div style=&quot;text-align: left;&quot;&gt;&lt;span style=&quot;background-color: initial;&quot;&gt;- Domain Name: 0x03&lt;/span&gt;&lt;/div&gt;&lt;div style=&quot;text-align: left;&quot;&gt;&lt;span style=&quot;background-color: initial;&quot;&gt;- IPv6: 0x04&lt;/span&gt;&lt;/div&gt;" style="text;html=1;strokeColor=none;fillColor=none;align=center;verticalAlign=middle;whiteSpace=wrap;rounded=0;fontSize=18;fontColor=#000000;" parent="1" vertex="1">
                    <mxGeometry x="290" y="370" width="200" height="100" as="geometry"/>
                </mxCell>
                <mxCell id="15" value="&lt;font color=&quot;#003300&quot;&gt;1&lt;/font&gt;" style="rounded=0;whiteSpace=wrap;html=1;fontSize=18;fillColor=none;strokeColor=#003300;strokeWidth=2;" parent="1" vertex="1">
                    <mxGeometry x="53" y="280" width="97" height="30" as="geometry"/>
                </mxCell>
                <mxCell id="34" style="edgeStyle=orthogonalEdgeStyle;curved=1;html=1;strokeColor=#FF0000;" edge="1" parent="1" source="16" target="33">
                    <mxGeometry relative="1" as="geometry"/>
                </mxCell>
                <mxCell id="16" value="&lt;font color=&quot;#003300&quot;&gt;1&lt;/font&gt;" style="rounded=0;whiteSpace=wrap;html=1;fontSize=18;fillColor=none;strokeColor=#003300;strokeWidth=2;" parent="1" vertex="1">
                    <mxGeometry x="150" y="280" width="87" height="30" as="geometry"/>
                </mxCell>
                <mxCell id="18" value="&lt;font color=&quot;#000000&quot;&gt;Destination/Target port&amp;nbsp; in network octet/byte order&lt;/font&gt;" style="text;html=1;strokeColor=none;fillColor=none;align=center;verticalAlign=middle;whiteSpace=wrap;rounded=0;fontSize=18;fontColor=#FFFFFF;" parent="1" vertex="1">
                    <mxGeometry x="440" y="140" width="200" height="70" as="geometry"/>
                </mxCell>
                <mxCell id="22" style="edgeStyle=none;html=1;fontSize=16;fontColor=#000000;" parent="1" source="21" target="6" edge="1">
                    <mxGeometry relative="1" as="geometry"/>
                </mxCell>
                <mxCell id="21" value="&lt;font size=&quot;1&quot;&gt;&lt;b style=&quot;font-size: 16px;&quot;&gt;&lt;font color=&quot;#ff0000&quot;&gt;NOTE: &lt;/font&gt;&lt;font color=&quot;#000000&quot;&gt;If ATYP is 0x03 (domain name), first octet of address field contains number of octets of name that follow without terminating NUL octet&lt;/font&gt;&lt;/b&gt;&lt;/font&gt;" style="text;html=1;strokeColor=none;fillColor=none;align=center;verticalAlign=middle;whiteSpace=wrap;rounded=0;" parent="1" vertex="1">
                    <mxGeometry x="46" y="482" width="640" height="48" as="geometry"/>
                </mxCell>
                <mxCell id="23" value="&lt;b&gt;&lt;font color=&quot;#000000&quot; style=&quot;font-size: 18px;&quot;&gt;RSV&lt;/font&gt;&lt;/b&gt;" style="rounded=0;whiteSpace=wrap;html=1;fillColor=none;strokeColor=#000000;strokeWidth=2;" vertex="1" parent="1">
                    <mxGeometry x="237" y="217" width="97" height="60" as="geometry"/>
                </mxCell>
                <mxCell id="24" value="&lt;b&gt;&lt;font color=&quot;#000000&quot; style=&quot;font-size: 18px;&quot;&gt;ATYP&lt;/font&gt;&lt;/b&gt;" style="rounded=0;whiteSpace=wrap;html=1;fillColor=none;strokeColor=#000000;strokeWidth=2;" vertex="1" parent="1">
                    <mxGeometry x="334" y="217" width="87" height="60" as="geometry"/>
                </mxCell>
                <mxCell id="25" value="&lt;font color=&quot;#003300&quot;&gt;0x00&lt;/font&gt;" style="rounded=0;whiteSpace=wrap;html=1;fontSize=18;fillColor=none;strokeColor=#003300;strokeWidth=2;" vertex="1" parent="1">
                    <mxGeometry x="237" y="280" width="97" height="30" as="geometry"/>
                </mxCell>
                <mxCell id="35" style="edgeStyle=orthogonalEdgeStyle;curved=1;html=1;strokeColor=#FF0000;" edge="1" parent="1" source="26" target="10">
                    <mxGeometry relative="1" as="geometry"/>
                </mxCell>
                <mxCell id="26" value="&lt;font color=&quot;#003300&quot;&gt;1&lt;/font&gt;" style="rounded=0;whiteSpace=wrap;html=1;fontSize=18;fillColor=none;strokeColor=#003300;strokeWidth=2;" vertex="1" parent="1">
                    <mxGeometry x="334" y="280" width="87" height="30" as="geometry"/>
                </mxCell>
                <mxCell id="27" value="&lt;b&gt;&lt;font color=&quot;#000000&quot; style=&quot;font-size: 18px;&quot;&gt;DST. ADDR&lt;/font&gt;&lt;/b&gt;" style="rounded=0;whiteSpace=wrap;html=1;fillColor=none;strokeColor=#000000;strokeWidth=2;" vertex="1" parent="1">
                    <mxGeometry x="421" y="217" width="120" height="60" as="geometry"/>
                </mxCell>
                <mxCell id="28" value="&lt;b&gt;&lt;font color=&quot;#000000&quot; style=&quot;font-size: 18px;&quot;&gt;DST. PORT&lt;/font&gt;&lt;/b&gt;" style="rounded=0;whiteSpace=wrap;html=1;fillColor=none;strokeColor=#000000;strokeWidth=2;" vertex="1" parent="1">
                    <mxGeometry x="541" y="217" width="120" height="60" as="geometry"/>
                </mxCell>
                <mxCell id="37" style="edgeStyle=orthogonalEdgeStyle;curved=1;html=1;entryX=0.5;entryY=0;entryDx=0;entryDy=0;strokeColor=#FF0000;" edge="1" parent="1" source="29" target="36">
                    <mxGeometry relative="1" as="geometry"/>
                </mxCell>
                <mxCell id="29" value="&lt;font color=&quot;#003300&quot;&gt;Variable&lt;/font&gt;" style="rounded=0;whiteSpace=wrap;html=1;fontSize=18;fillColor=none;strokeColor=#003300;strokeWidth=2;" vertex="1" parent="1">
                    <mxGeometry x="421" y="280" width="120" height="30" as="geometry"/>
                </mxCell>
                <mxCell id="31" style="edgeStyle=orthogonalEdgeStyle;html=1;entryX=1;entryY=0.5;entryDx=0;entryDy=0;curved=1;strokeColor=#FF0000;exitX=1;exitY=0.5;exitDx=0;exitDy=0;" edge="1" parent="1" source="28" target="18">
                    <mxGeometry relative="1" as="geometry"/>
                </mxCell>
                <mxCell id="30" value="&lt;font color=&quot;#003300&quot;&gt;2&lt;/font&gt;" style="rounded=0;whiteSpace=wrap;html=1;fontSize=18;fillColor=none;strokeColor=#003300;strokeWidth=2;" vertex="1" parent="1">
                    <mxGeometry x="541" y="280" width="120" height="30" as="geometry"/>
                </mxCell>
                <mxCell id="33" value="&lt;font color=&quot;#000000&quot;&gt;CMD&lt;br&gt;&lt;div style=&quot;text-align: left;&quot;&gt;&lt;span style=&quot;background-color: initial;&quot;&gt;- CONNECT: 0x01&lt;/span&gt;&lt;/div&gt;&lt;div style=&quot;text-align: left;&quot;&gt;&lt;span style=&quot;background-color: initial;&quot;&gt;- BIND: 0x02&lt;/span&gt;&lt;/div&gt;&lt;div style=&quot;text-align: left;&quot;&gt;&lt;span style=&quot;background-color: initial;&quot;&gt;- UDP ASSOCIATE: 0x03&lt;/span&gt;&lt;/div&gt;&lt;/font&gt;" style="text;html=1;strokeColor=none;fillColor=none;align=center;verticalAlign=middle;whiteSpace=wrap;rounded=0;fontSize=18;" vertex="1" parent="1">
                    <mxGeometry x="53" y="370" width="207" height="100" as="geometry"/>
                </mxCell>
                <mxCell id="36" value="&lt;font color=&quot;#000000&quot;&gt;destination address, type depends on ATYP&lt;/font&gt;" style="text;html=1;strokeColor=none;fillColor=none;align=center;verticalAlign=middle;whiteSpace=wrap;rounded=0;fontSize=18;" vertex="1" parent="1">
                    <mxGeometry x="490" y="370" width="210" height="50" as="geometry"/>
                </mxCell>
            </root>
        </mxGraphModel>
    </diagram>
</mxfile>